<?xml version="1.0" standalone="no"?>
<!DOCTYPE svg PUBLIC "-//W3C//DTD SVG 20010904//EN"
 "http://www.w3.org/TR/2001/REC-SVG-20010904/DTD/svg10.dtd">
<svg version="1.0" xmlns="http://www.w3.org/2000/svg"
 width="80.000000pt" height="65.000000pt" viewBox="0 0 600.000000 450.000000"
 preserveAspectRatio="xMidYMid meet">
<metadata>
Created by potrace 1.16, written by Peter Selinger 2001-2019
</metadata>
<g transform="translate(0.000000,450.000000) scale(0.100000,-0.100000)"
fill="#000000" stroke="none">
<path d="M0 2250 l0 -2250 3000 0 3000 0 0 2250 0 2250 -3000 0 -3000 0 0
-2250z m3210 1347 c240 -67 429 -211 548 -419 81 -141 123 -353 103 -516 -32
-265 -163 -480 -382 -630 -41 -27 -48 -37 -53 -76 -8 -53 -37 -98 -89 -139
-30 -24 -49 -32 -96 -35 -74 -5 -123 16 -158 70 -28 41 -28 43 2 52 15 4 24
-2 37 -25 49 -85 182 -67 237 32 45 79 26 160 -52 223 -35 28 -45 31 -111 31
-60 0 -78 -4 -108 -24 -34 -24 -70 -68 -84 -103 -10 -29 10 -19 31 15 41 65
125 60 125 -7 0 -42 -35 -73 -91 -82 -29 -5 -39 -12 -43 -30 -9 -35 -73 -102
-120 -126 -61 -31 -150 -28 -215 7 -57 31 -105 93 -115 150 -6 29 -18 42 -68
77 -174 118 -301 306 -355 525 -22 91 -22 285 0 376 86 348 344 598 692 666
70 14 298 6 365 -12z m675 -2069 c125 -66 186 -167 186 -310 1 -63 -4 -89 -26
-135 -32 -70 -93 -135 -160 -171 -45 -24 -61 -27 -150 -27 -118 0 -171 20
-245 95 -73 73 -95 127 -95 240 0 84 3 102 28 152 34 69 111 140 182 168 74
30 211 24 280 -12z m-2353 -20 c66 -31 128 -91 160 -156 19 -40 23 -63 23
-147 0 -116 -14 -152 -87 -222 -77 -75 -106 -83 -318 -83 -102 0 -180 4 -174
8 30 20 34 55 34 312 0 257 -4 291 -34 313 -6 4 68 6 164 5 165 -3 178 -4 232
-30z m1521 -54 l47 -7 0 -46 0 -46 -20 32 c-49 81 -179 94 -261 26 -54 -46
-74 -97 -74 -194 0 -78 3 -90 30 -135 58 -94 169 -122 269 -69 26 14 44 21 41
15 -4 -6 -25 -20 -48 -32 -58 -31 -165 -31 -223 0 -83 43 -124 115 -124 217 0
76 15 117 60 169 71 80 133 95 303 70z m-973 -13 c0 -18 -2 -18 -42 -4 -22 8
-62 13 -87 11 l-46 -3 0 -110 0 -110 62 1 c34 0 69 7 78 14 13 11 15 8 15 -21
0 -26 -3 -30 -12 -21 -7 7 -40 12 -80 12 l-68 0 0 -92 c0 -51 4 -99 9 -107 14
-21 100 -26 144 -8 35 15 37 15 37 -4 0 -18 -8 -19 -142 -18 -79 0 -136 3
-128 6 37 13 40 33 40 233 0 200 -3 220 -40 233 -8 3 47 6 123 6 128 1 137 0
137 -18z m200 12 c-36 -13 -40 -33 -40 -228 0 -230 0 -230 90 -230 56 0 64 3
86 29 l25 28 -7 -28 c-4 -16 -9 -32 -11 -36 -2 -5 -68 -8 -146 -7 -92 0 -134
3 -120 9 38 16 43 41 43 230 0 189 -5 214 -43 230 -15 6 2 9 58 9 44 -1 73 -3
65 -6z m320 -6 l-25 -13 -3 -194 c-1 -107 0 -205 3 -218 3 -13 16 -27 28 -32
16 -6 1 -9 -53 -9 -59 0 -70 3 -53 11 30 15 33 32 33 228 0 196 -3 213 -33
228 -18 8 -7 11 53 11 67 1 72 -1 50 -12z m679 2 c-15 -6 -30 -20 -33 -32 -10
-39 -7 -377 5 -398 6 -11 20 -24 32 -29 16 -6 -2 -9 -58 -9 -71 -1 -77 1 -55
12 l25 13 0 214 0 214 -25 13 c-22 11 -16 13 55 12 64 0 75 -3 54 -10z m971
-2 l-25 -13 -3 -172 c-3 -206 5 -233 75 -264 52 -23 101 -17 142 18 47 39 52
65 49 249 l-3 169 -25 13 c-22 11 -16 13 55 13 71 0 77 -2 55 -13 l-25 -13 0
-214 0 -214 25 -13 c23 -12 21 -13 -27 -13 l-53 0 0 40 0 41 -31 -36 c-52 -59
-142 -69 -217 -23 -58 36 -66 63 -72 258 -5 174 -5 175 -30 187 -22 11 -16 13
55 13 71 0 77 -2 55 -13z m493 -2 c-63 -27 -80 -116 -30 -162 12 -12 50 -37
84 -57 80 -47 103 -76 103 -132 0 -99 -104 -147 -223 -102 -23 9 -31 8 -38 -3
-6 -9 -9 7 -9 46 l0 60 18 -34 c25 -51 63 -74 118 -74 39 0 51 4 71 27 27 32
30 81 8 114 -9 12 -47 40 -86 63 -78 47 -106 76 -115 123 -12 65 50 147 111
146 15 -1 11 -5 -12 -15z"/>
<path d="M2925 3574 c-146 -21 -288 -74 -392 -145 -148 -102 -258 -253 -319
-439 -26 -78 -28 -97 -28 -235 0 -136 3 -158 28 -235 44 -136 127 -272 218
-356 41 -39 127 -104 137 -104 4 0 13 15 19 34 12 32 68 91 106 113 18 10 19
9 -65 281 -10 31 -13 32 -61 32 -34 0 -62 7 -86 22 -37 23 -71 85 -72 131 0
39 23 90 52 113 l25 20 -18 34 c-52 96 14 230 114 230 24 0 27 3 27 35 0 72
44 141 112 176 80 41 162 35 241 -18 l37 -26 38 26 c148 101 352 10 352 -158
0 -32 3 -35 28 -35 37 0 88 -33 112 -72 26 -44 27 -123 1 -162 -20 -29 -20
-29 3 -47 30 -23 56 -78 56 -116 -1 -47 -35 -108 -74 -132 -28 -18 -48 -22
-93 -20 l-57 3 -43 -140 c-23 -76 -44 -148 -47 -159 -4 -16 4 -25 39 -44 40
-21 105 -97 105 -123 0 -5 19 4 43 20 153 106 262 255 323 442 26 78 28 98 28
235 0 137 -2 157 -28 235 -112 343 -396 563 -751 584 -44 2 -93 2 -110 0z"/>
<path d="M2885 2503 c5 -40 25 -259 25 -280 0 -7 -12 -13 -27 -13 l-28 0 26
-23 c28 -23 65 -75 58 -81 -2 -2 -13 -6 -24 -10 -15 -4 -24 2 -37 25 -10 16
-34 37 -54 45 -122 51 -254 -110 -190 -233 77 -150 301 -131 362 30 10 28 -10
18 -31 -16 -41 -65 -125 -60 -125 7 0 42 35 73 90 82 30 5 39 12 49 39 11 31
72 94 117 122 19 12 19 12 -1 12 -21 1 -21 3 -8 139 15 167 16 199 4 187 -7
-8 -31 -246 -31 -308 0 -12 -8 -17 -30 -17 l-30 0 0 165 c0 103 -4 165 -10
165 -6 0 -10 -62 -10 -165 l0 -165 -25 0 c-27 0 -30 10 -40 145 -10 133 -17
185 -26 185 -5 0 -7 -17 -4 -37z"/>
<path d="M3674 1541 c-59 -15 -118 -55 -151 -105 -44 -64 -57 -114 -57 -216 0
-102 13 -152 57 -216 47 -70 121 -108 206 -108 114 0 191 49 240 154 23 49 26
67 26 170 0 99 -3 122 -24 167 -53 118 -178 182 -297 154z"/>
<path d="M1258 1523 l-28 -4 0 -279 c0 -345 -8 -325 137 -325 80 1 105 5 138
22 85 45 134 127 142 238 11 147 -56 276 -169 325 -53 23 -159 34 -220 23z"/>
</g>
</svg>
