<?xml version="1.0" standalone="no"?>
<!DOCTYPE svg PUBLIC "-//W3C//DTD SVG 20010904//EN"
 "http://www.w3.org/TR/2001/REC-SVG-20010904/DTD/svg10.dtd">
<svg version="1.0" xmlns="http://www.w3.org/2000/svg"
 width="1024.000000pt" height="768.000000pt" viewBox="0 0 1024.000000 768.000000"
 preserveAspectRatio="xMidYMid meet">

<g transform="translate(0.000000,768.000000) scale(0.100000,-0.100000)"
fill="#000000" stroke="none">
<path d="M5000 6149 c-502 -60 -812 -177 -1190 -452 -70 -51 -246 -228 -329
-332 -91 -114 -183 -256 -245 -382 -70 -141 -72 -147 -47 -172 12 -12 29 -21
39 -21 18 0 52 29 52 44 0 21 127 258 166 311 254 344 487 547 799 696 556
265 1114 273 1690 25 196 -85 464 -272 600 -419 73 -77 201 -245 242 -315 15
-25 35 -45 49 -48 31 -8 74 20 74 47 0 28 -125 209 -214 311 -116 132 -266
264 -424 370 -98 66 -351 189 -472 228 -276 91 -584 133 -790 109z"/>
<path d="M1834 6078 c-12 -19 -104 -753 -104 -829 0 -139 57 -268 148 -332
128 -91 128 -92 113 -447 -6 -151 -18 -439 -26 -640 -15 -393 -16 -400 -45
-1111 -15 -350 -17 -485 -9 -505 15 -41 48 -74 94 -95 49 -23 94 -24 142 -4
48 20 71 41 95 89 19 38 19 43 4 420 -29 668 -45 1067 -51 1221 -3 83 -13 296
-22 475 -22 476 -21 485 91 595 76 74 121 158 136 251 10 61 7 116 -29 464
-50 481 -47 460 -71 460 -10 0 -21 -4 -24 -8 -3 -5 -10 -179 -16 -388 -7 -208
-14 -389 -16 -401 -3 -16 -11 -23 -28 -23 l-23 0 -9 408 -9 407 -26 3 -26 3
-6 -118 c-4 -65 -10 -237 -14 -383 -3 -146 -9 -276 -13 -290 -9 -35 -36 -38
-44 -5 -4 14 -11 198 -16 408 -5 210 -9 383 -10 385 0 2 -12 2 -27 0 l-28 -3
-12 -350 c-17 -489 -14 -460 -38 -460 -18 0 -21 9 -26 95 -4 52 -7 233 -8 401
-1 298 -2 307 -21 312 -11 3 -23 1 -26 -5z m26 -273 l0 -155 -30 0 c-36 0 -35
-6 -14 160 18 143 20 150 34 150 6 0 10 -55 10 -155z m150 -5 c0 -143 -1 -150
-20 -150 -18 0 -20 7 -20 83 0 130 11 217 26 217 11 0 14 -30 14 -150z m144
142 c2 -4 6 -72 7 -152 3 -130 1 -145 -14 -148 -15 -3 -17 11 -17 152 0 139 6
177 24 148z m169 -54 c4 -35 9 -105 13 -155 l7 -93 -32 0 c-30 0 -31 1 -31 48
0 122 13 262 25 262 8 0 15 -24 18 -62z m-487 -804 c29 -12 89 -17 256 -22
148 -3 218 -9 218 -16 0 -22 -39 -75 -84 -112 -56 -47 -91 -97 -100 -145 -3
-20 -2 -155 4 -300 17 -445 50 -1219 54 -1305 3 -44 8 -197 12 -340 l6 -259
-26 -82 c-26 -80 -58 -123 -92 -123 -23 0 -65 68 -91 147 -31 97 -31 47 8
1133 39 1089 39 1135 16 1177 -9 18 -50 56 -90 86 -70 52 -118 108 -132 155
-8 26 -8 26 41 6z"/>
<path d="M8199 6066 c-41 -28 -126 -154 -176 -263 -69 -151 -128 -365 -157
-581 -30 -215 -46 -709 -30 -918 l7 -80 45 -25 c25 -13 55 -36 66 -51 21 -30
20 -112 -25 -1560 -11 -330 -10 -349 7 -385 36 -73 130 -113 216 -93 62 15
102 49 123 104 18 46 16 100 -41 1437 -19 427 -16 466 41 649 l25 79 0 842 c0
603 -3 846 -11 856 -17 20 -50 16 -90 -11z m-131 -348 c6 -7 47 -83 91 -169
l81 -156 0 -484 0 -484 -37 -112 -36 -113 -43 0 c-24 0 -68 9 -98 21 -68 25
-142 102 -152 157 -11 58 4 602 21 752 26 236 66 411 123 543 26 59 33 65 50
45z m-15 -1643 c20 -8 49 -15 65 -15 16 0 35 -6 41 -13 7 -9 22 -268 42 -730
30 -682 30 -720 15 -790 -39 -173 -132 -217 -187 -89 -49 114 -51 135 -40 534
6 205 14 541 17 746 4 204 8 372 9 372 2 0 19 -7 38 -15z"/>
<path d="M4940 5394 c-262 -35 -485 -136 -699 -318 -227 -192 -381 -458 -436
-751 -19 -100 -12 -125 36 -125 36 0 43 15 59 120 27 184 145 426 285 584 176
199 417 336 700 397 93 20 361 17 465 -5 191 -41 392 -133 528 -242 76 -61
194 -184 241 -252 13 -19 33 -37 45 -42 28 -10 56 5 56 32 0 63 -249 321 -389
402 -189 111 -390 183 -573 206 -105 13 -187 11 -318 -6z"/>
<path d="M7013 4849 c-49 -31 -76 -82 -77 -145 0 -47 5 -60 42 -115 l43 -62
-22 -31 c-93 -127 -289 -331 -312 -323 -28 10 7 120 113 357 77 174 78 175 53
178 -45 6 -68 -22 -121 -145 -97 -227 -131 -292 -174 -339 -52 -57 -156 -136
-169 -128 -27 16 17 150 122 379 38 83 69 153 69 158 0 4 -9 7 -20 7 -45 0
-69 -23 -117 -114 -46 -87 -136 -196 -161 -196 -8 0 -12 20 -12 58 0 67 -23
113 -69 137 -60 30 -175 -16 -249 -100 -50 -57 -111 -175 -147 -283 -20 -62
-41 -100 -81 -151 -66 -82 -93 -98 -125 -72 -21 17 -22 20 -10 82 13 68 98
303 137 380 26 51 23 59 -16 59 -57 0 -76 -30 -131 -203 -60 -190 -91 -254
-153 -324 -48 -53 -132 -103 -173 -103 -13 0 -35 11 -48 25 -33 32 -33 83 1
177 72 200 169 328 225 297 19 -9 21 -17 17 -60 -3 -27 -1 -52 3 -55 13 -8 29
41 29 85 0 52 -24 71 -86 71 -133 0 -243 -116 -305 -320 -27 -89 -67 -153
-151 -238 -66 -66 -98 -82 -123 -62 -35 29 -6 146 94 385 27 66 46 124 41 129
-4 4 -24 3 -43 -3 -40 -14 -43 -17 -138 -251 -71 -175 -110 -246 -167 -307
-48 -53 -81 -57 -112 -13 -12 17 -24 48 -27 68 -4 32 2 48 50 118 173 258 285
613 236 752 -12 36 -64 57 -103 42 -51 -19 -147 -186 -209 -367 -54 -154 -78
-287 -78 -430 l0 -123 -52 -42 c-73 -58 -149 -90 -229 -96 -42 -3 -68 -1 -68
5 0 6 14 28 31 49 132 165 181 307 127 368 -50 55 -128 30 -236 -76 -58 -57
-88 -110 -106 -188 -16 -69 -13 -126 10 -172 8 -15 14 -32 14 -38 0 -12 -158
-90 -181 -90 -18 0 22 -29 41 -30 9 0 51 18 94 40 l79 39 61 -20 c113 -39 216
-1 355 127 l83 77 25 -32 c27 -34 90 -71 123 -71 23 0 100 67 141 123 l28 38
12 -23 c34 -67 86 -85 148 -54 31 17 133 123 171 179 30 45 46 47 53 8 10 -50
55 -90 110 -97 40 -6 56 -2 110 24 34 17 89 56 122 86 33 31 60 56 61 56 1 0
7 -13 14 -29 15 -37 58 -55 107 -46 38 7 75 38 145 124 l36 45 27 -32 c78 -93
166 -82 280 32 52 52 83 96 118 163 32 63 60 101 87 123 22 17 40 28 40 23 0
-4 -12 -44 -26 -88 -31 -97 -34 -157 -9 -185 44 -48 97 -30 201 72 l74 71 0
-34 c0 -85 57 -90 147 -13 51 44 245 257 294 324 13 16 28 30 34 30 15 0 80
-87 99 -134 17 -41 21 -103 8 -124 -7 -10 -18 -9 -58 3 -58 18 -137 19 -167 4
-55 -28 -74 -91 -38 -123 25 -23 87 -45 127 -46 54 0 134 30 174 66 l39 36 74
-12 c218 -35 375 64 423 265 39 169 -26 345 -152 406 -96 46 -235 3 -250 -78
-6 -31 -3 -39 16 -55 36 -29 91 -21 108 16 13 25 12 31 -8 58 -26 35 -16 48
38 48 74 0 129 -45 172 -142 49 -111 42 -220 -21 -339 -39 -73 -87 -114 -153
-134 -53 -16 -193 -20 -214 -7 -9 6 -13 39 -15 103 -2 83 -6 102 -34 162 -18
38 -47 86 -63 107 l-31 39 26 60 c35 84 34 132 -6 165 -38 32 -91 34 -136 5z
m123 -54 c14 -22 15 -32 5 -64 -6 -22 -19 -49 -29 -61 l-18 -22 -37 41 c-41
45 -48 83 -20 113 25 28 79 24 99 -7z m-2419 -304 c-7 -101 -57 -263 -117
-386 -55 -111 -128 -230 -136 -222 -9 8 15 126 48 237 58 196 178 467 201 453
6 -3 8 -35 4 -82z m1460 -11 c38 -14 63 -58 63 -113 0 -66 -23 -89 -93 -95
-33 -2 -69 1 -86 8 -72 29 -58 142 24 191 34 22 50 23 92 9z m-146 -240 c13
-7 49 -11 90 -8 49 3 69 0 69 -8 0 -25 -102 -164 -142 -193 -47 -35 -70 -34
-105 5 -18 19 -23 37 -23 78 0 50 21 140 42 180 9 17 11 16 28 -12 11 -17 29
-36 41 -42z m1043 -19 c53 -13 64 -26 42 -50 -58 -64 -196 -62 -196 2 0 51 59
70 154 48z m-2926 -277 c2 -32 -6 -58 -37 -118 -36 -69 -127 -196 -142 -196
-14 0 -29 56 -29 108 0 72 35 151 93 210 36 37 47 42 77 40 33 -3 35 -5 38
-44z"/>
<path d="M5752 4737 c-6 -7 -15 -25 -21 -39 -13 -34 18 -78 55 -78 29 0 74 41
74 68 0 46 -80 83 -108 49z"/>
<path d="M2985 4546 c-177 -41 -316 -117 -428 -234 -74 -79 -109 -153 -115
-249 -4 -64 -1 -79 22 -128 36 -72 66 -95 125 -95 59 0 91 21 91 60 0 62 -61
80 -103 30 -14 -16 -28 -30 -31 -30 -13 0 -28 77 -22 119 22 163 138 335 270
403 71 36 179 69 247 75 202 18 370 -129 457 -397 78 -238 25 -587 -111 -745
-100 -117 -287 -138 -457 -54 -34 17 -60 37 -60 46 0 8 14 63 31 122 101 347
209 782 209 844 0 32 -17 38 -64 22 -43 -15 -56 -29 -56 -63 0 -60 -194 -860
-213 -879 -2 -1 -18 2 -36 8 -98 34 -202 -62 -172 -161 13 -44 56 -70 115 -70
61 0 103 24 136 78 l31 48 83 -42 c116 -58 218 -80 304 -66 157 26 273 124
362 304 64 131 89 231 97 383 5 102 3 133 -16 205 -49 198 -150 332 -312 415
-100 51 -278 75 -384 51z m-235 -1186 c15 -8 17 -16 11 -38 -24 -82 -59 -112
-116 -98 -54 14 -54 94 -1 131 24 17 79 20 106 5z"/>
<path d="M4956 4538 c-22 -31 -20 -64 4 -88 44 -44 116 -10 112 53 -3 39 -25
57 -68 57 -23 0 -38 -7 -48 -22z"/>
<path d="M7100 3912 c-17 -14 -23 -34 -31 -97 -5 -44 -19 -116 -30 -160 -130
-519 -394 -904 -826 -1199 -113 -77 -344 -189 -486 -235 -298 -96 -648 -121
-951 -68 -255 46 -551 159 -756 290 -139 88 -348 286 -478 452 -100 128 -108
136 -128 129 -58 -21 -58 -53 3 -135 137 -187 356 -402 521 -512 200 -133 501
-260 726 -307 218 -46 481 -61 671 -40 200 23 458 95 633 175 114 53 317 172
402 236 168 127 364 336 487 519 148 221 286 595 318 860 6 47 4 59 -15 83
-25 32 -31 33 -60 9z"/>
<path d="M6338 3833 c-8 -10 -27 -56 -41 -103 -59 -192 -156 -351 -306 -500
-127 -127 -248 -210 -396 -273 -253 -106 -502 -130 -773 -72 -130 27 -372 144
-482 233 -25 20 -82 71 -127 114 -80 76 -107 90 -131 66 -25 -25 -10 -50 86
-146 152 -153 331 -260 552 -330 134 -42 226 -56 375 -55 238 1 392 36 590
132 266 130 490 348 612 596 80 161 121 294 104 331 -13 28 -42 31 -63 7z"/>
</g>
</svg>
